# xmcd CD database file
#
# Track frame offsets:
#	150
#	5466
#	23015
#	44806
#	65356
#	83765
#	104900
#	132068
#	157133
#	179113
#	204092
#	224327
#	243909
#	262027
#	281132
#	301293
#	323588
#
# Disc length: 4538 seconds
#
# Revision: 25
# Processed by: cddbd v1.5.2PL0 Copyright (c) Steve Scherf et al.
# Submitted via: CDex 1.51
#
DISCID=f811b811
DTITLE=Schiller - Leben
DYEAR=2003
DGENRE=New Age
TTITLE0=Schiller - Willkommen
TTITLE1=Schiller - Sommerregen
TTITLE2=Schiller - I've Seen It All (mit Maya Saban)
TTITLE3=Schiller - Zukunft (aus dem Film - Gate To Heaven)
TTITLE4=Schiller - Liebe (mit Mila Mar)
TTITLE5=Schiller - Einklang
TTITLE6=Schiller - I Miss You (mit  Maya Saban)
TTITLE7=Schiller - Leben ... I Feel You (mit Heppner)
TTITLE8=Schiller - Mittelerde
TTITLE9=Schiller - The Smile (mit Sarah Brightman)
TTITLE10=Schiller - Dreiklang
TTITLE11=Schiller - Babel (mit Mila Mar)
TTITLE12=Schiller - Desire (mit Veljanov)
TTITLE13=Schiller - Stille
TTITLE14=Schiller - Vergangenheit
TTITLE15=Schiller - Delicately Yours (mit Kim Sanders)
TTITLE16=Schiller - Ausklang
EXTD=YEAR: 2003
EXTT0=
EXTT1=
EXTT2=
EXTT3=
EXTT4=
EXTT5=
EXTT6=
EXTT7=
EXTT8=
EXTT9=
EXTT10=
EXTT11=
EXTT12=
EXTT13=
EXTT14=
EXTT15=
EXTT16=
PLAYORDER=
